# xmcd
# 
# Track frame offsets:
#     187
#     23375
#     41012
#     63600
#     84337
#     102385
#     124780
#     142107
#     161242
#     179175
# 
# Disc length: 2796
# 
# Revision: 0
# Processed by: cddbd v1.5.2PL0 Copyright (c) Steve Scherf et al.
# Submitted via: fre:ac v1.0.31
# 
DISCID=8d0aea0a
DTITLE=三宅亜衣 - VIRGINITY
DYEAR=94
DGENRE=JPop
TTITLE0=01.愛がすべてだった
TTITLE1=02.傷つく勇気が欲しいよ(リミックス)
TTITLE2=03.99%
TTITLE3=04.秘密のバラたち
TTITLE4=05.まぶしいあなたが好きだった
TTITLE5=06.ためいきの銃弾
TTITLE6=07.ドゥ・マイ・ベスト
TTITLE7=08.まなざしの不一致
TTITLE8=09.虜にしてごらん
TTITLE9=10.悲しいくらいアイ・ラヴ・ユー
EXTD=
EXTT0=
EXTT1=
EXTT2=
EXTT3=
EXTT4=
EXTT5=
EXTT6=
EXTT7=
EXTT8=
EXTT9=
PLAYORDER=
